 <!DOCTYPE svg PUBLIC "-//W3C//DTD SVG 1.1//EN" "http://www.w3.org/Graphics/SVG/1.1/DTD/svg11.dtd">
<svg id="a6e761af-ea3b-49c1-9d63-4b65b9eeb9b5" data-name="Layer 1" xmlns="http://www.w3.org/2000/svg" xmlns:xlink="http://www.w3.org/1999/xlink" width="865.76" height="682.89" viewBox="0 0 865.76 682.89">
<defs>
<clipPath id="bd4f88eb-ac8b-419a-85cd-65c0829cd590">
<path id="b3119e00-9275-488a-9bba-cb4ad147c984" data-name="SVGID" d="M579.41,173.84c5.88,9.51,3.71,22.78,1.91,25.87s-11.26,22.14-11.26,22.14l-22.8-18.28s12.21-17,14.41-22S563,168.8,563,168.8C565.08,161.76,573.54,164.33,579.41,173.84Z" fill="none"/>
</clipPath>
<style xmlns="http://www.w3.org/1999/xhtml">*, ::after, ::before { box-sizing: border-box; }
img, svg { vertical-align: middle; }
</style>
<style xmlns="http://www.w3.org/1999/xhtml">*, body, html { -webkit-font-smoothing: antialiased; }
img, svg { max-width: 100%; }
</style>
</defs>
<rect x="189.86" y="16.6" width="317.53" height="648.86" rx="43.31" fill="#2f2e41" data-secondary="true"/>
<path d="M194,122.91h0a0,0,0,0,1,0,0V223a0,0,0,0,1,0,0h0a11.39,11.39,0,0,1-11.39-11.39V134.3A11.39,11.39,0,0,1,194,122.91Z" fill="#2f2e41" data-secondary="true"/>
<path d="M504.17,187.18h0a7.31,7.31,0,0,1,7.31,7.31V232a7.31,7.31,0,0,1-7.31,7.31h0a0,0,0,0,1,0,0V187.18a0,0,0,0,1,0,0Z" fill="#2f2e41" data-secondary="true"/>
<path d="M240.29,24.2H453.51a46.29,46.29,0,0,1,46.29,46.29V611.75a45.43,45.43,0,0,1-45.43,45.43H239.43A45.43,45.43,0,0,1,194,611.75V70.48A46.29,46.29,0,0,1,240.29,24.2Z" opacity="0.2"/>
<rect x="204.7" y="79.76" width="286.81" height="520.81" fill="#fff"/>
<circle cx="347.31" cy="196.1" r="38.22" fill="#bcbec0"/>
<path d="M339.49,196.1h16.05a15.09,15.09,0,0,1,15.09,15.09v9.21a0,0,0,0,1,0,0H324.4a0,0,0,0,1,0,0v-9.21A15.09,15.09,0,0,1,339.49,196.1Z" opacity="0.2"/>
<circle cx="347.82" cy="180.39" r="12.04" opacity="0.2"/>
<rect x="302.14" y="248.08" width="90.66" height="21.63" fill="#bcbec0"/>
<rect x="317.57" y="280.06" width="59.79" height="11.96" fill="#bcbec0"/>
<rect x="226.44" y="303.87" width="244.36" height="1.61" fill="#ccc"/>
<rect x="226.44" y="342.53" width="244.36" height="1.61" fill="#ccc"/>
<rect x="226.44" y="379.63" width="244.36" height="1.61" fill="#ccc"/>
<rect x="226.44" y="417.54" width="244.36" height="1.61" fill="#ccc"/>
<rect x="226.44" y="455.5" width="244.36" height="1.61" fill="#ccc"/>
<rect x="226.44" y="493.24" width="244.36" height="1.61" fill="#ccc"/>
<rect x="226.44" y="317.56" width="72.71" height="10.58" rx="5.29" fill="#ccc"/>
<rect x="226.44" y="393.26" width="88.24" height="10.58" rx="5.29" fill="#ccc"/>
<rect x="226.44" y="431.34" width="63.85" height="10.58" rx="5.29" fill="#ccc"/>
<rect x="226.44" y="470.69" width="109.06" height="10.58" rx="5.29" fill="#ccc"/>
<rect x="441.46" y="317.56" width="28.53" height="10.58" rx="5.29" fill="#ccc"/>
<circle cx="464.13" cy="322.86" r="3.8" fill="#bcbec0"/>
<rect x="441.06" y="393.26" width="28.53" height="10.58" rx="5.29" fill="#ccc"/>
<circle cx="463.72" cy="398.56" r="3.8" fill="#bcbec0"/>
<rect x="441.06" y="469.88" width="28.53" height="10.58" rx="5.29" fill="#ccc"/>
<circle cx="463.72" cy="475.18" r="3.8" fill="#bcbec0"/>
<rect x="441.06" y="355.41" width="28.53" height="10.58" rx="5.29" transform="translate(910.65 721.41) rotate(180)" fill="#ccc"/>
<circle cx="447.56" cy="360.71" r="3.8" fill="#bcbec0"/>
<rect x="441.46" y="431.34" width="28.53" height="10.58" rx="5.29" transform="translate(911.46 873.27) rotate(-180)" fill="#ccc"/>
<circle cx="447.96" cy="436.64" r="3.8" fill="#bcbec0"/>
<rect x="226.44" y="355.41" width="138.69" height="10.58" rx="5.29" fill="#ccc"/>
<rect x="226.44" y="514.29" width="82.72" height="27.96" rx="13.98" fill="#ccc"/>
<rect x="387.28" y="514.29" width="82.72" height="27.96" rx="13.98" fill="#ccc"/>
<rect x="270.28" y="575.61" width="17.26" height="1.61" fill="#ccc"/>
<rect x="270.28" y="582.51" width="17.26" height="1.61" fill="#ccc"/>
<rect x="270.28" y="587.69" width="17.26" height="1.61" fill="#ccc"/>
<polygon points="358.65 581.64 348.65 577.3 340.01 581.62 339.29 580.18 348.6 575.53 359.3 580.16 358.65 581.64" fill="#ccc"/>
<polygon points="356.85 589.3 341.78 589.3 341.78 583.32 343.39 583.32 343.39 587.69 355.24 587.69 355.24 583.32 356.85 583.32 356.85 589.3" fill="#ccc"/>
<polygon points="425.01 589.3 409.02 589.3 409.02 587.69 423.4 587.69 423.4 577.22 409.02 577.22 409.02 575.61 425.01 575.61 425.01 589.3" fill="#ccc"/>
<rect x="313.07" y="122.91" width="66.96" height="17.26" fill="#bcbec0"/>
<path d="M452.12,93.57h24.61a2,2,0,0,1,2,2v9.1a2,2,0,0,1-2,2H452.12a1.34,1.34,0,0,1-1.34-1.34V94.91A1.34,1.34,0,0,1,452.12,93.57Z" fill="#ccc"/>
<path d="M452.1,93.57h16.63a0,0,0,0,1,0,0v13.12a0,0,0,0,1,0,0H452.1a1.32,1.32,0,0,1-1.32-1.32V94.89A1.32,1.32,0,0,1,452.1,93.57Z" opacity="0.2"/>
<path d="M434.4,109.85l-1.87-8.92H420.9L440,92.07Zm-6.2-10.53h5.63l.89,4.2,2.66-8.45Z" fill="#ccc"/>
<path d="M268.2,96.79a.82.82,0,0,1-.54-.21c-9.53-8.72-18.88-.36-19.27,0a.81.81,0,1,1-1.09-1.19c.11-.1,10.85-9.7,21.45,0a.81.81,0,0,1,.05,1.14A.83.83,0,0,1,268.2,96.79Z" fill="#ccc"/>
<path d="M265.21,100.24a.8.8,0,0,1-.53-.2c-6.51-5.67-13.05-.23-13.32,0a.81.81,0,0,1-1.14-.09.8.8,0,0,1,.09-1.13c.08-.07,7.86-6.59,15.43,0a.8.8,0,0,1-.53,1.41Z" fill="#ccc"/>
<path d="M262,103.58a.79.79,0,0,1-.55-.22c-3.4-3.21-6.69-.14-6.83,0a.79.79,0,0,1-1.13,0,.81.81,0,0,1,0-1.14,6.36,6.36,0,0,1,9.05,0,.79.79,0,0,1,0,1.13A.8.8,0,0,1,262,103.58Z" fill="#ccc"/>
<circle cx="258.02" cy="105.56" r="1.31" fill="#ccc"/>
<rect x="234.5" y="90.92" width="3.22" height="15.59" fill="#ccc"/>
<rect x="228.63" y="95.53" width="3.22" height="10.99" fill="#ccc"/>
<rect x="222.65" y="99.44" width="3.22" height="7.14" fill="#ccc"/>
<rect x="216.78" y="101.93" width="3.22" height="4.65" fill="#ccc"/>
<rect x="314.68" y="614.61" width="65.23" height="23.81" rx="11.91" fill="#2f2e41" data-secondary="true"/>
<polygon points="574.84 316.28 634.51 285.11 641.04 281.86 667.52 262.64 670.04 258.3 649.01 262.28 637.42 262.64 632.35 276.05 575.29 294.68 574.84 316.28" fill="#f7aa92" style="isolation:isolate"/>
<path d="M579.41,173.84c5.88,9.51,3.71,22.78,1.91,25.87s-11.26,22.14-11.26,22.14l-22.8-18.28s12.21-17,14.41-22S563,168.8,563,168.8C565.08,161.76,573.54,164.33,579.41,173.84Z" fill="#f9b499"/>
<g clip-path="url(#bd4f88eb-ac8b-419a-85cd-65c0829cd590)">
<polygon points="580.02 204.11 570.07 221.87 564.81 214.36 574.7 193.85 580.02 204.11" fill="#f7aa92" opacity="0.5" style="isolation:isolate"/>
</g>
<path d="M621.39,160.29c1.49-7.07-1.21-9.6-8.9-18.83a57.5,57.5,0,0,0-10-7.52c-4.44-2.51-9.22-4.57-19.44-5-15.75-.68-25.68,16.94-27.08,25.6s1.8,17.55,5.23,19.51,12.68,8.13,12.7,10.93-3.1,9.86,1,16.13,11.91,14.37,16.83,12.82c0,0,27.78-10,29.62-53.62,0,0,3.59-5.68-2.06-11.69S607.6,150,607.6,150" fill="#f9b499"/>
<path d="M552.75,154.64c.64,14.42,11.47,30.24,20.41,28.61-7.43-4.61-2.43-18.12,3.06-20.08,3.75-1.34,5.76,4.4,6.67,8.21a7.84,7.84,0,0,0,6.93.81c6.26-2.35,3.14-5,5-5s8.16-3.14,8.16-3.14c1.87-3.76.62-13.17.62-13.17,1.87-1.26,6.38-.31,12,4.08a15,15,0,0,1,5.66,11s10.6,3.12,13.74-2.53-1.89-5.67-1.89-10.05,7.54-21.95-8.14-32-32-.63-32-.63a123.44,123.44,0,0,0-16.3,1.25C567.44,123.65,552.11,140.23,552.75,154.64Z" fill="#2f2e41" data-secondary="true"/>
<path d="M561.91,156c14.56,3.9,25.54-3.19,31.19-8.49s10.26-2.82,10.26-2.82" fill="none" stroke="#fff" stroke-linecap="round" stroke-linejoin="round" stroke-width="0.5"/>
<path d="M567.94,142.93c9.9,0,22.28-7.43,27.58-7.43s8.48,4.95,8.48,4.95" fill="none" stroke="#fff" stroke-linecap="round" stroke-linejoin="round" stroke-width="0.5"/>
<path d="M607.6,134.81c6.71-6.38,17.33.34,18,8.12a18.37,18.37,0,0,0,6,12" fill="none" stroke="#fff" stroke-linecap="round" stroke-linejoin="round" stroke-width="0.5"/>
<path d="M601.22,129.49c8.84-13.08,19.46-2.83,19.46-2.83" fill="none" stroke="#fff" stroke-linecap="round" stroke-linejoin="round" stroke-width="0.5"/>
<path d="M559,632.4l7.56,8.26,24,11.18a1.52,1.52,0,0,1,.83,1.73l-1.16,4.61s-26.87,2.55-31.95,2.55-29-6.57-29-6.57l-.71-6.53c-.73-6.53,5.81-16.68,5.81-16.68Z" fill="#0071f2" data-primary="true"/>
<path d="M591,654.89l-.83,3.29s-26.87,2.55-31.95,2.55-29.12-6.57-29.12-6.57l-.51-4.54c7.16,2.53,19.49,6.5,26,6C563.14,655,586.67,654.91,591,654.89Z" fill="#2f2e41" data-secondary="true"/>
<path d="M536,645.08c-7.09,7.92-2.6,19.72-2.6,19.72s65,1.49,68,0,0-9,0-9l-34.88-15.18S543.08,637.17,536,645.08Z" fill="#0071f2" data-primary="true"/>
<path d="M532.25,660h70.26c.33,2,.27,4.09-1.16,4.82-3,1.49-68,0-68,0A26.63,26.63,0,0,1,532.25,660Z" fill="#2f2e41" data-secondary="true"/>
<path d="M579.64,370.71l-48.63,1s7.31,11.18,8.92,18.45,24.13,118.13,24.13,123.93-9.51,39.19-13.86,59.51-16,57.33-16,57.33L559.64,636l3.63-8.67s36.27-97.24,37-103.05-1.3-56.41-4.75-81.67S583,377,583,377Z" fill="#2f2e41" data-secondary="true"/>
<path d="M579.64,370.71l-48.63,1s7.31,11.18,8.92,18.45,24.13,118.13,24.13,123.93-9.51,39.19-13.86,59.51-16,57.33-16,57.33L559.64,636l3.63-8.67s36.27-97.24,37-103.05-1.3-56.41-4.75-81.67S583,377,583,377Z" opacity="0.2"/>
<path d="M521.3,368.92c-6.06,13.55,3,40.07,7.07,52.6s11.39,79.63,9.08,97-6.93,60.33-6.93,81.19,5.56,45.34,5.56,45.34a41.46,41.46,0,0,0,11.84-1.29c3.34-.95,18.64-3.13,18.64-3.13l-.78-8s-1.63-10.9-.47-32.92c.74-15.24,13.86-63.77,13.86-71.9s4.73-62.71,6.93-88.35S583,377,583,377,527.37,355.37,521.3,368.92Z" fill="#2f2e41" data-secondary="true"/>
<path d="M588.18,363.12l.9,14.9a3.22,3.22,0,0,1-2.93,3.46c-9.28.9-36.87,3.31-47.85,1.4-13.31-2.3-23.18-4.26-23.18-4.26l-.56-16.49Z" fill="#0071f2" data-primary="true"/>
<path d="M508.81,279.59c2,19.86,5.11,65.44,5.84,82.54.16,3.64.28,8.26,3.92,8.49,3,.19,21.43,4.16,27.6,3.84,16.89-.84,35.58-2,39.41-5.19s2.69-6.1,2.69-6.1L583,320.22c-1.68-13.63,4.28-43.33,2.08-56s-4.53-28.71-10.4-39.19-21.46-27.34-21.46-27.34C527.49,200,504.64,239.1,508.81,279.59Z" fill="#0071f2" data-primary="true"/>
<path d="M549.21,301l34.91-9.77a195.65,195.65,0,0,0,1.25-22l-35.58,12.13-41.43-6.93c.09,1.73.19,3.46.37,5.19.6,5.88,1.3,14,2,23Z" fill="#fff" opacity="0.2"/>
<path d="M531.23,236.26l8.66,3.47L566.19,213c-4.45-5.64-9.13-11-11.48-13.58Z" fill="#fff" opacity="0.2"/>
<path d="M547.48,198.84l31.36,36.23a53.4,53.4,0,0,0-4.21-10c-5.87-10.48-21.46-27.34-21.46-27.34A29.86,29.86,0,0,0,547.48,198.84Z" fill="#0071f2" data-primary="true"/>
<path d="M578.34,233.73l-29.78,13.5-33.32-13.36a96.68,96.68,0,0,0-6.77,30l41.32,4.75,34-11.19A157.37,157.37,0,0,0,578.34,233.73Z" fill="#fff" opacity="0.2"/>
<path d="M513.53,343c.46,7.71.83,14.43,1,19.06a7.09,7.09,0,0,0,.66,2.68l7.64.92a142.67,142.67,0,0,0,55.32-4.26l9.46-2.65L585.06,338l-8.3,2.84A105.32,105.32,0,0,1,525.24,345Z" fill="#fff" opacity="0.2"/>
<path d="M511.58,315.2c.54,7.29,1,14.67,1.48,21.6l5.19.62a142.44,142.44,0,0,0,55.31-4.28l10.53-2.94-1.23-10a68,68,0,0,1-.16-11.33l-10.56,3.62a104.89,104.89,0,0,1-51.53,4.23Z" fill="#fff" opacity="0.2"/>
<rect x="644.19" y="254.87" width="42.98" height="2.3" transform="translate(-13.54 473.61) rotate(-38.8)" fill="#2f2e41" data-secondary="true"/>
<path d="M558.69,226c7.62,13,8.51,30.88,9.15,38s-.23,44.35-.23,44.35L636.79,283l3.75-2.56,2.65-17.33,12.12-4.54,4.16-2.89,2.25,2.86-11.48,10.62,21.32-16.35,2.72,5.19-8.66,16.36L648.14,288.5l-72.31,48s-15,10.6-24.59,5-22-51.82-24-66-2.9-22.28-2.78-31c.28-19.76,12.57-28.13,12.57-28.13" fill="#f9b499"/>
<path d="M569.9,301s3.05-6.94,2.91-9.77a6.06,6.06,0,0,0-2.42-4.38s1.73-10.86.48-13.06.38-37.41-7.59-49.47S545,211,537.14,211.42s-17.76,18.47-18.38,28.69,5.09,33.73,5.09,33.73-.33,5.67,0,12.46,3.86,9.42,4.57,12.23-.17,7.36.52,10.17,5.43,6.53,5.43,6.53l6.84,12.13,26.4-19.06Z" fill="#0071f2" data-primary="true"/>
<path d="M522.71,268.47c.69,3.19,1.19,5.28,1.19,5.28s-.34,5.69,0,12.46a17,17,0,0,0,.59,3.69,102.91,102.91,0,0,0,45.93-3.46c.28-1.82,1.54-10.75.43-12.72a48.72,48.72,0,0,1-.67-9A167.19,167.19,0,0,1,522.71,268.47Z" fill="#fff" opacity="0.2"/>
<path d="M521,230.74a33.8,33.8,0,0,0-2.25,9.35,66.62,66.62,0,0,0,.88,12.13,103.31,103.31,0,0,0,49.4-6c-.8-7.57-2.19-15-4.66-20A171.57,171.57,0,0,1,521,230.74Z" fill="#fff" opacity="0.2"/>
<path d="M528.77,307.21a7.57,7.57,0,0,0,.23,1.49c.69,2.81,5.42,6.53,5.42,6.53l6.84,12.13,26.41-19.06,2.23-7.16A161.2,161.2,0,0,1,528.77,307.21Z" fill="#0071f2" data-primary="true"/>
<line x1="550.13" y1="404.42" x2="546.93" y2="386.68" fill="none" stroke="#263238" stroke-miterlimit="10" stroke-width="1"/>
</svg>