 <!DOCTYPE svg PUBLIC "-//W3C//DTD SVG 1.1//EN" "http://www.w3.org/Graphics/SVG/1.1/DTD/svg11.dtd">
<svg id="ab41cb4f-73c0-4f63-b252-82dd9b9ce13f" data-name="Layer 1" xmlns="http://www.w3.org/2000/svg" width="865.76" height="682.89" viewBox="0 0 865.76 682.89">
<defs>
<style xmlns="http://www.w3.org/1999/xhtml">*, ::after, ::before { box-sizing: border-box; }
img, svg { vertical-align: middle; }
</style>
<style xmlns="http://www.w3.org/1999/xhtml">*, body, html { -webkit-font-smoothing: antialiased; }
img, svg { max-width: 100%; }
</style>
</defs>
<path d="M731.62,207.3l15.84-17a6.19,6.19,0,0,0,.23-8.27h0a6.19,6.19,0,0,0-9.15-.32l-16,15.83Z" fill="#2f2e41" data-secondary="true"/>
<circle cx="765.53" cy="259.43" r="4.18" fill="#2f2e41" data-secondary="true"/>
<circle cx="740.44" cy="333.69" r="4.18" fill="#2f2e41" data-secondary="true"/>
<polygon points="735.43 346.02 740.43 359.58 750.36 359.58 739.75 333.69 735.43 346.02" fill="#2f2e41" data-secondary="true"/>
<path d="M152.82,178.87H380.75a6,6,0,0,1,6,6V333.15a6,6,0,0,1-6,6h-228A4.78,4.78,0,0,1,148,334.4V183.69A4.82,4.82,0,0,1,152.82,178.87Z" fill="#ccc"/>
<rect x="172.58" y="189.45" width="203.8" height="124.43" rx="2.24" fill="#fff"/>
<path d="M425.54,178.87h234a0,0,0,0,1,0,0V339.18a0,0,0,0,1,0,0h-234a4.78,4.78,0,0,1-4.78-4.78V183.69A4.82,4.82,0,0,1,425.54,178.87Z" transform="translate(1080.23 518.05) rotate(180)" fill="#ccc"/>
<rect x="431.83" y="189.86" width="203.8" height="124.43" rx="2.24" fill="#fff"/>
<rect x="556.29" y="199.26" width="69.89" height="51.49" fill="#ccc"/>
<g opacity="0.2">
<rect x="556.29" y="209.27" width="69.89" height="1.32"/>
</g>
<path d="M648.65,178.87h10.86a0,0,0,0,1,0,0V339.18a0,0,0,0,1,0,0H648.07a4.24,4.24,0,0,1-4.24-4.24V183.69A4.82,4.82,0,0,1,648.65,178.87Z" transform="translate(1303.33 518.05) rotate(180)" opacity="0.2"/>
<path d="M611.52,263.46l-5.65-21.19,16,15.42-3.68,2.21,3.82,6a1.53,1.53,0,0,1-.53,2.15h0a1.52,1.52,0,0,1-2-.48l-4.11-6.16Z" fill="#2f2e41" data-secondary="true"/>
<rect x="424.3" y="494.01" width="15.07" height="111.13" fill="#d1d3d4"/>
<path d="M371.93,428.46s-23-3.39-17.32,25.24L376.83,578h22.23L387.38,477.44" fill="#2f2e41" data-secondary="true"/>
<path d="M477.79,477.44,466.49,578H491l22.56-133.78a13.64,13.64,0,0,0-13.45-15.9h-6.48" fill="#2f2e41" data-secondary="true"/>
<rect x="115.39" y="367.35" width="30.37" height="240.99" fill="#ccc"/>
<rect x="115.39" y="367.35" width="30.37" height="240.99" opacity="0.2"/>
<rect x="705.96" y="366.55" width="30.37" height="240.99" fill="#ccc"/>
<rect x="705.96" y="366.55" width="30.37" height="240.99" opacity="0.2"/>
<rect x="20.58" y="367.35" width="824.6" height="26.9" fill="#ccc"/>
<path d="M403.35,189.45h58.17a0,0,0,0,1,0,0v36.11a22.06,22.06,0,0,1-22.06,22.06H425.41a22.06,22.06,0,0,1-22.06-22.06V189.45a0,0,0,0,1,0,0Z" fill="#f9b499"/>
<ellipse cx="464.61" cy="211.19" rx="5.37" ry="7.34" fill="#f9b499"/>
<ellipse cx="401.04" cy="211.19" rx="5.37" ry="7.34" fill="#f9b499"/>
<rect x="420.25" y="240.86" width="25.71" height="12.71" fill="#f9b499"/>
<path d="M411.21,267.65V263a12.29,12.29,0,0,1,12.29-12.29h18.08A12.29,12.29,0,0,1,453.87,263l.43,4.47" fill="#0071f2" data-primary="true"/>
<path d="M411.21,267.65V263a12.29,12.29,0,0,1,12.29-12.29h18.08A12.29,12.29,0,0,1,453.87,263l.43,4.47" opacity="0.2"/>
<path d="M371.93,368.57l-6.76,11.94a14.27,14.27,0,0,1-19.67,5.25h0a14.27,14.27,0,0,1-5.62-18.42l37.71-79s8.66-10.17,16.57-12.06l24.76-12.53a30.64,30.64,0,0,1,13.8-3.29h0a30.54,30.54,0,0,1,13.34,3.07l31.73,15.39s9.42,3,13.94,15.44l35.12,72.87a14,14,0,0,1-4.62,17.59h0A14,14,0,0,1,502.5,381l-8.13-12.41" fill="#0071f2" data-primary="true"/>
<path d="M417.14,291h29.39a46.14,46.14,0,0,1,46.14,46.14V449.69a11,11,0,0,1-11,11H382a11,11,0,0,1-11-11V337.11A46.14,46.14,0,0,1,417.14,291Z" fill="#d1d3d4"/>
<rect x="370.99" y="460.69" width="121.68" height="17.71" rx="6.71" fill="#e6e7e8"/>
<path d="M412.81,478.4h38a0,0,0,0,1,0,0v10.36a8.86,8.86,0,0,1-8.86,8.86H421.67a8.86,8.86,0,0,1-8.86-8.86V478.4A0,0,0,0,1,412.81,478.4Z" fill="#d1d3d4"/>
<path d="M412.81,478.4h38a0,0,0,0,1,0,0v10.36a8.86,8.86,0,0,1-8.86,8.86H421.67a8.86,8.86,0,0,1-8.86-8.86V478.4A0,0,0,0,1,412.81,478.4Z" opacity="0.2"/>
<rect x="413.75" y="505.31" width="13.94" height="2.64" fill="#d1d3d4"/>
<rect x="396.8" y="502.87" width="19.97" height="7.53" rx="2.86" fill="#d1d3d4"/>
<rect x="396.8" y="502.87" width="19.97" height="7.53" rx="2.86" opacity="0.2"/>
<g opacity="0.2">
<polygon points="398.43 572.64 375.87 572.64 375.63 571.32 398.28 571.32 398.43 572.64"/>
</g>
<g opacity="0.2">
<polygon points="491.88 572.64 467.08 572.64 467.24 571.32 492.11 571.32 491.88 572.64"/>
</g>
<polygon points="380.76 578.02 383.11 592.18 400.78 592.18 399.06 578.02 380.76 578.02" fill="#f9b499"/>
<polygon points="466.49 578.02 464.99 592.18 482.07 592.18 485.31 578.02 466.49 578.02" fill="#f9b499"/>
<path d="M383.11,592.18c1.72,10.31-7.36,9.42-7.36,9.42-12.66-.29-12.08,11.83-12.08,11.83h37.72l-.61-21.25Z" fill="#0071f2" data-primary="true"/>
<path d="M483.27,592.18c-1.72,10.31,7.36,9.42,7.36,9.42,12.66-.29,12.08,11.83,12.08,11.83H465l.61-21.25Z" fill="#0071f2" data-primary="true"/>
<path d="M422,305.86h23.25a36.51,36.51,0,0,1,36.51,36.51v97.51a5.19,5.19,0,0,1-5.19,5.19H390.66a5.19,5.19,0,0,1-5.19-5.19V342.37A36.51,36.51,0,0,1,422,305.86Z" fill="#e6e7e8"/>
<path d="M152.82,178.87h10.86a0,0,0,0,1,0,0V339.18a0,0,0,0,1,0,0H152.24a4.24,4.24,0,0,1-4.24-4.24V183.69A4.82,4.82,0,0,1,152.82,178.87Z" opacity="0.2"/>
<rect x="180.94" y="260.45" width="56.51" height="41.82" fill="#ccc"/>
<g opacity="0.2">
<rect x="180.94" y="268.46" width="56.51" height="1.32"/>
</g>
<rect x="313.94" y="197.63" width="56.51" height="41.82" fill="#ccc"/>
<g opacity="0.2">
<rect x="313.94" y="205.64" width="56.51" height="1.32"/>
</g>
<rect x="246.23" y="197.63" width="56.51" height="41.82" fill="#ccc"/>
<g opacity="0.2">
<rect x="246.23" y="205.64" width="56.51" height="1.32"/>
</g>
<polygon points="269.52 213.74 269.52 226.59 279.83 220.16 269.52 213.74" opacity="0.2"/>
<g opacity="0.2">
<rect x="251.29" y="232.01" width="47.18" height="1.32"/>
</g>
<rect x="285.62" y="229.42" width="3.11" height="5.51" fill="#ccc"/>
<rect x="285.62" y="229.42" width="3.11" height="5.51" opacity="0.2"/>
<polygon points="290.94 319.22 295.08 367.35 318.82 367.35 324.09 319.22 290.94 319.22" fill="#2f2e41" data-secondary="true"/>
<path d="M297.49,305.86h20.06a4,4,0,0,1,4,4v2.8a0,0,0,0,1,0,0h-28a0,0,0,0,1,0,0v-2.8A4,4,0,0,1,297.49,305.86Z" fill="#2f2e41" data-secondary="true"/>
<rect x="230.77" y="339.18" width="11.7" height="28.17" fill="#ccc"/>
<rect x="230.77" y="339.18" width="11.7" height="28.17" opacity="0.2"/>
<rect x="572.07" y="339.18" width="11.7" height="28.17" fill="#ccc"/>
<rect x="572.07" y="339.18" width="11.7" height="28.17" opacity="0.2"/>
<path d="M539.51,356.51h11.81a8.22,8.22,0,0,1,8.22,8.22v2.62a0,0,0,0,1,0,0H531.28a0,0,0,0,1,0,0v-2.62A8.22,8.22,0,0,1,539.51,356.51Z" fill="#2f2e41" data-secondary="true"/>
<path d="M698.3,353.27h10.84a2.41,2.41,0,0,1,2.41,2.41v3.9a0,0,0,0,1,0,0H695.89a0,0,0,0,1,0,0v-3.9A2.41,2.41,0,0,1,698.3,353.27Z" fill="#2f2e41" data-secondary="true"/>
<path d="M721.15,359.58l35.45-99.13L736.49,201.6l7.41-7.41,21.25,65.38a2.72,2.72,0,0,1,0,1.76l-34.46,98.25Z" fill="#2f2e41" data-secondary="true"/>
<path d="M721.15,359.58l35.45-99.13L736.49,201.6l7.41-7.41,21.25,65.38a2.72,2.72,0,0,1,0,1.76l-34.46,98.25Z" opacity="0.2"/>
<circle cx="730.63" cy="333.69" r="4.18" fill="#2f2e41" data-secondary="true"/>
<circle cx="754.53" cy="259.13" r="4.18" fill="#2f2e41" data-secondary="true"/>
<polygon points="778.79 310.08 786.7 306.41 811.56 367.35 802.8 367.35 778.79 310.08" fill="#2f2e41" data-secondary="true"/>
<path d="M786.7,364.89l38.37-57.83a3.71,3.71,0,0,1,5.49-.77h0a3.69,3.69,0,0,1,.72,4.82l-36.11,56.24H786.7Z" fill="#2f2e41" data-secondary="true"/>
<path d="M809.83,322.61l-1.09-.75,10.68-15.49a2.23,2.23,0,0,1,1.47-.93,2.18,2.18,0,0,1,1.69.42l2.22,1.68-.79,1-2.23-1.68a.88.88,0,0,0-.68-.17.89.89,0,0,0-.6.38Z" fill="#2f2e41" data-secondary="true"/>
<polygon points="778.79 310.08 777.47 297.34 786.7 306.41 778.79 310.08" fill="#2f2e41" data-secondary="true"/>
<polygon points="778.79 310.08 777.47 297.34 786.7 306.41 778.79 310.08" fill="#fff" opacity="0.2"/>
<path d="M730.62,237.44a18.81,18.81,0,0,1-1.72,2.19c-8.31,9-24.18,7.88-35.46-2.52-11-10.14-13.52-25.36-5.92-34.45l.58-.68c5.62-6.09,14.68-7.55,23.43-4.65A33.77,33.77,0,0,1,732,216.7C734.82,224,734.49,231.69,730.62,237.44Z" fill="#2f2e41" data-secondary="true"/>
<path d="M730.62,237.44a18.81,18.81,0,0,1-1.72,2.19c-8.31,9-24.18,7.88-35.46-2.52-11-10.14-13.52-25.36-5.92-34.45l.58-.68c5.62-6.09,14.68-7.55,23.43-4.65A33.77,33.77,0,0,1,732,216.7C734.82,224,734.49,231.69,730.62,237.44Z" opacity="0.2"/>
<path d="M730.62,237.44a18.81,18.81,0,0,1-1.72,2.19c-8.31,9-24.18,7.88-35.46-2.52-11-10.14-13.52-25.36-5.92-34.45a35.29,35.29,0,0,1,18.94,3.06,43.46,43.46,0,0,1,8.21,4.78,42.75,42.75,0,0,1,9.44,9.46A32.28,32.28,0,0,1,730.62,237.44Z" fill="#2f2e41" data-secondary="true"/>
<path d="M724.11,220a11.87,11.87,0,1,1-17.65-14.24,43.46,43.46,0,0,1,8.21,4.78A42.75,42.75,0,0,1,724.11,220Z" fill="#fff" opacity="0.2"/>
<path d="M733.26,212.81A14.45,14.45,0,0,1,732,216.7a33.77,33.77,0,0,0-20.45-19.37,14.74,14.74,0,0,1,21.73,15.48Z" fill="#2f2e41" data-secondary="true"/>
<path d="M148.32,359h30a6.33,6.33,0,0,1,6.33,6.33v2a0,0,0,0,1,0,0H142a0,0,0,0,1,0,0v-2A6.33,6.33,0,0,1,148.32,359Z" fill="#2f2e41" data-secondary="true"/>
<path d="M127,363.24l-1.31-.13c0-.18,1.9-18.31,22.32-16.73l-.11,1.32C128.86,346.23,127.1,362.54,127,363.24Z" fill="#2f2e41" data-secondary="true"/>
<path d="M132.29,363.25l-1.31-.14c0-.13,1.51-12.57,16-11.87l-.07,1.32C133.71,351.91,132.34,362.78,132.29,363.25Z" fill="#2f2e41" data-secondary="true"/>
<path d="M137.85,364.35l-1.32-.05c0-.07.37-6.87,9.19-7.44l.09,1.32C138.15,358.67,137.86,364.12,137.85,364.35Z" fill="#2f2e41" data-secondary="true"/>
<rect x="38.54" y="337.86" width="76.85" height="14.08" fill="#2f2e41" data-secondary="true"/>
<path d="M36.21,329.86h72.68a0,0,0,0,1,0,0v8a0,0,0,0,1,0,0H36.21a3,3,0,0,1-3-3V332.9A3,3,0,0,1,36.21,329.86Z" fill="#2f2e41" data-secondary="true"/>
<path d="M36.21,329.86h72.68a0,0,0,0,1,0,0v8a0,0,0,0,1,0,0H36.21a3,3,0,0,1-3-3V332.9A3,3,0,0,1,36.21,329.86Z" opacity="0.2"/>
<path d="M107.76,367.25H38a7.69,7.69,0,0,1-7.69-7.69h0A7.69,7.69,0,0,1,38,351.87h69.72a9.43,9.43,0,0,0-5.08,8.5C102.74,363.82,104.69,365.65,107.76,367.25Z" fill="#2f2e41" data-secondary="true"/>
<path d="M107.76,367.25H38a7.69,7.69,0,0,1-7.69-7.69h0A7.69,7.69,0,0,1,38,351.87h69.72a9.43,9.43,0,0,0-5.08,8.5C102.74,363.82,104.69,365.65,107.76,367.25Z" opacity="0.2"/>
<polyline points="40.27 363.18 40.27 378 45.51 373.83 49.5 378 49.5 363.18" fill="#fff"/>
<path d="M368.17,156.1c-9.05,2.61-12.29,1.17-17.06-.24a25.11,25.11,0,1,1,11.61-8.34A42.67,42.67,0,0,0,368.17,156.1Z" fill="#ccc"/>
<path d="M496.74,154.65c9,2.61,12.28,1.17,17.06-.24a25.1,25.1,0,1,0-11.62-8.34A42.93,42.93,0,0,1,496.74,154.65Z" fill="#ccc"/>
<path d="M455.81,92.81a23.26,23.26,0,0,1-8.11,17.68,72.08,72.08,0,0,0-10.59,10.94l-4,5.28L428,120.58a65.12,65.12,0,0,0-9.95-9.4,23.35,23.35,0,1,1,37.77-18.37Z" fill="#ccc"/>
<rect x="424.3" y="398.33" width="15.07" height="80.07" fill="#d1d3d4"/>
<rect x="412.81" y="378.36" width="38.05" height="19.97" rx="7.57" fill="#d1d3d4"/>
<path d="M395.09,603.26h76.11a7.71,7.71,0,0,1,7.71,7.71v2.46a0,0,0,0,1,0,0H387.38a0,0,0,0,1,0,0V611A7.71,7.71,0,0,1,395.09,603.26Z" fill="#d1d3d4"/>
<path d="M395.09,603.26h76.11a7.71,7.71,0,0,1,7.71,7.71v2.46a0,0,0,0,1,0,0H387.38a0,0,0,0,1,0,0V611A7.71,7.71,0,0,1,395.09,603.26Z" opacity="0.2"/>
<path d="M431.52,242.27a19.29,19.29,0,0,1-16.58-9.15c-4.51-7.47-9.94-20.4-13.05-41.9,0,0-4.49-24.92,21.18-28.56a54.23,54.23,0,0,1,15.85,0s5.37,2.76,5.37-2.32V159a1.38,1.38,0,0,1,2.26-1.06c5.24,4.38,17.8,15.45,18,21,0,0,1.18,33.83-13.8,55.32a19.25,19.25,0,0,1-15.82,8Z" fill="#2f2e41" data-secondary="true"/>
<path d="M402.62,195.85l3.45,24.84a27.16,27.16,0,0,0,13.86,20.09l6.06,3.31a13.79,13.79,0,0,0,13,.15l6-3.13a27.18,27.18,0,0,0,14.24-19.4l4-22.52Z" fill="#2f2e41" data-secondary="true"/>
<path d="M690.73,359.58h68.81a5.89,5.89,0,0,1,5.89,5.89v1.88a0,0,0,0,1,0,0h-80.6a0,0,0,0,1,0,0v-1.88A5.89,5.89,0,0,1,690.73,359.58Z" fill="#2f2e41" data-secondary="true"/>
<rect x="287.32" y="312.62" width="40.4" height="6.59" fill="#2f2e41" data-secondary="true"/>
<rect x="287.32" y="312.62" width="40.4" height="6.59" opacity="0.2"/>
<rect x="38.54" y="362.52" width="13.93" height="1.32" fill="#2f2e41" data-secondary="true"/>
<path d="M432.53,105.25h-1.42l-.19,0a11.64,11.64,0,0,1-5.31-1.68,12,12,0,0,1-5.77-8.36c-.09-.46-.13-.92-.19-1.38V92.37c0-.07,0-.13,0-.2a18.34,18.34,0,0,1,.32-2,12.19,12.19,0,0,1,13.77-9.11,11.45,11.45,0,0,1,3.77,1.28c.58.32,1.13.7,1.71,1.06l-2.84,3.69a7.6,7.6,0,0,0-9.52.29,7.52,7.52,0,1,0,12.06,8h-7.12V90.78H444c0,1.19,0,2.37-.1,3.54a11.7,11.7,0,0,1-3,6.8,11.89,11.89,0,0,1-7,3.94C433.46,105.15,433,105.19,432.53,105.25Z" fill="#fff"/>
<path d="M344.36,141.55a8.05,8.05,0,0,1-1.22-.3,4.44,4.44,0,0,1-2.92-3.61,5.69,5.69,0,0,1-.05-.83c0-1.94,0-3.89,0-5.84v-.25H338a.57.57,0,0,1-.65-.64V126.9a.58.58,0,0,1,.64-.64h.46a1.65,1.65,0,0,0,1.75-1.71c0-.26,0-.53,0-.79a.57.57,0,0,1,.64-.63H344a.55.55,0,0,1,.63.63v2.5h2.21a.57.57,0,0,1,.64.65c0,1.06,0,2.11,0,3.17a.56.56,0,0,1-.64.64h-2.21v6.13c0,.25,0,.28.29.21a1.16,1.16,0,0,0,.27-.14l.85-.57a.55.55,0,0,1,.82.17l1.78,2.75a.52.52,0,0,1-.12.77,9,9,0,0,1-2.09,1.19c-.39.13-.81.2-1.21.29l-.12,0Z" fill="#fff"/>
<path d="M525.31,120.47l1.07.08.66.06v3.31a2.26,2.26,0,0,0-.26,0c-.7,0-1.4,0-2.1,0a1.2,1.2,0,0,0-1.25,1.2c-.06,1,0,2,0,3.1h3.32l-.46,3.69h-2.89v9.28h-3.7V132h-3v-3.69h3V128c0-1.09,0-2.18,0-3.26a4.38,4.38,0,0,1,1.51-3.27,4.28,4.28,0,0,1,2.34-1l.2,0Z" fill="#fff"/>
<rect x="786.7" y="333.69" width="35.6" height="33.66" fill="#2f2e41" data-secondary="true"/>
<rect x="783.31" y="327.32" width="41.53" height="6.37" fill="#2f2e41" data-secondary="true"/>
<rect x="783.31" y="327.32" width="41.53" height="6.37" opacity="0.2"/>
</svg>